<svg width="67" height="67" viewBox="0 0 67 67" fill="none" xmlns="http://www.w3.org/2000/svg" xmlns:xlink="http://www.w3.org/1999/xlink">
<path d="M66 33.5C66 15.5507 51.4493 1 33.5 1C15.5507 1 1 15.5507 1 33.5C1 51.4493 15.5507 66 33.5 66C51.4493 66 66 51.4493 66 33.5Z" fill="url(#pattern0)" stroke="white" stroke-width="2"/>
<path d="M47.2203 60.4109H42.1711C40.498 60.4109 39.1416 57.4612 39.1416 53.8226V18.7814C39.1407 16.6515 39.6134 14.652 40.4104 13.4141L42.1494 10.7129C42.4923 10.1828 42.9026 9.89872 43.3233 9.9004H46.0681C46.489 9.90033 46.8995 10.1864 47.242 10.7184L48.9809 13.4196C49.7772 14.6564 50.2498 16.6534 50.2498 18.7814V53.8226C50.2498 57.4612 48.8935 60.4109 47.2203 60.4109Z" fill="#0D0E0F"/>
<path d="M48.9804 13.4142L47.2414 10.713C46.8985 10.1829 46.4882 9.89878 46.0675 9.90046L44.5527 9.90039C44.9737 9.90039 45.3841 10.1864 45.7266 10.7185L47.4656 13.4197C48.2619 14.6565 48.7345 16.6535 48.7345 18.7815V53.8226C48.7345 57.4613 47.3781 60.411 45.7049 60.411H47.2197C48.8929 60.411 50.2492 57.4613 50.2492 53.8226V18.7815C50.2501 16.6515 49.7774 14.6521 48.9804 13.4142Z" fill="#1B1C1D"/>
<path d="M46.4529 5.58398H42.8795C42.6329 5.58398 42.4329 6.08394 42.4329 6.70069V8.934C42.4329 9.55073 42.6329 10.0507 42.8795 10.0507H46.4529C46.6996 10.0507 46.8995 9.55073 46.8995 8.934V6.70069C46.8995 6.08394 46.6996 5.58398 46.4529 5.58398Z" fill="#BDA170"/>
<path d="M46.3413 5.58398H44.6663C44.9747 5.58398 45.2246 6.08394 45.2246 6.70069V8.934C45.2246 9.55073 44.9747 10.0507 44.6663 10.0507H46.3413C46.6497 10.0507 46.8996 9.55073 46.8996 8.934V6.70069C46.8996 6.08394 46.6497 5.58398 46.3413 5.58398Z" fill="#8B7550"/>
<path d="M46.7154 26.373H42.6761C42.3972 26.373 42.1711 26.8647 42.1711 27.4711V31.8633C42.1711 32.4698 42.3972 32.9614 42.6761 32.9614H46.7154C46.9943 32.9614 47.2203 32.4698 47.2203 31.8633V27.4711C47.2203 26.8647 46.9943 26.373 46.7154 26.373Z" fill="#F5F5F5"/>
<path d="M24.8287 60.411H19.7795C18.1063 60.411 16.75 57.4612 16.75 53.8226V18.7814C16.7491 16.6515 17.2218 14.652 18.0188 13.4141L19.7578 10.713C20.1007 10.1828 20.511 9.89879 20.9317 9.9004H23.6765C24.0974 9.9004 24.5078 10.1864 24.8504 10.7185L26.5893 13.4196C27.3856 14.6564 27.8582 16.6535 27.8582 18.7814V53.8226C27.8582 57.4612 26.5018 60.411 24.8287 60.411Z" fill="#238CBC"/>
<path d="M26.5888 13.4141L24.8498 10.713C24.5069 10.1828 24.0966 9.89879 23.6759 9.9004H22.1611C22.5821 9.9004 22.9925 10.1864 23.335 10.7185L25.074 13.4196C25.8703 14.6564 26.3429 16.6535 26.3428 18.7814V53.8226C26.3428 57.4612 24.9865 60.411 23.3133 60.411H24.8281C26.5013 60.411 27.8576 57.4612 27.8576 53.8226V18.7814C27.8585 16.6515 27.3858 14.652 26.5888 13.4141Z" fill="#084E6D"/>
<path d="M24.1201 5.58398H20.5468C20.3001 5.58398 20.1001 6.08393 20.1001 6.70065V8.93396C20.1001 9.5507 20.3001 10.0507 20.5468 10.0507H24.1201C24.3668 10.0507 24.5668 9.5507 24.5668 8.93396V6.70065C24.5668 6.08393 24.3668 5.58398 24.1201 5.58398Z" fill="#BDA170"/>
<path d="M24.0085 5.58398H22.3335C22.6418 5.58398 22.8918 6.08393 22.8918 6.70065V8.93396C22.8918 9.5507 22.6418 10.0507 22.3335 10.0507H24.0085C24.3168 10.0507 24.5668 9.5507 24.5668 8.93396V6.70065C24.5668 6.08393 24.3168 5.58398 24.0085 5.58398Z" fill="#8B7550"/>
<path d="M24.3235 26.373H20.2842C20.0054 26.373 19.7793 26.8647 19.7793 27.4711V31.8634C19.7793 32.4698 20.0054 32.9614 20.2842 32.9614H24.3235C24.6024 32.9614 24.8285 32.4698 24.8285 31.8634V27.4711C24.8285 26.8647 24.6024 26.373 24.3235 26.373Z" fill="#F5F5F5"/>
<path d="M35.938 60.411H30.8888C29.2157 60.411 27.8594 57.4612 27.8594 53.8226V18.7814C27.8585 16.6515 28.3312 14.652 29.1282 13.4141L30.8671 10.713C31.21 10.1828 31.6204 9.89879 32.041 9.9004H34.7858C35.2067 9.9004 35.6172 10.1864 35.9597 10.7185L37.6987 13.4196C38.495 14.6564 38.9676 16.6535 38.9675 18.7814V53.8226C38.9675 57.4612 37.6112 60.411 35.938 60.411Z" fill="#7F8E94"/>
<path d="M37.6979 13.4141L35.959 10.713C35.6161 10.1828 35.2057 9.89879 34.785 9.9004H33.2703C33.6912 9.9004 34.1017 10.1864 34.4442 10.7185L36.1832 13.4196C36.9795 14.6564 37.4521 16.6535 37.452 18.7814V53.8226C37.452 57.4612 36.0957 60.411 34.4225 60.411H35.9373C37.6104 60.411 38.9667 57.4612 38.9667 53.8226V18.7814C38.9676 16.6515 38.4949 14.652 37.6979 13.4141Z" fill="#545C60"/>
<path d="M35.2866 5.58398H31.7133C31.4666 5.58398 31.2666 6.08393 31.2666 6.70065V8.93396C31.2666 9.5507 31.4666 10.0507 31.7133 10.0507H35.2866C35.5333 10.0507 35.7333 9.5507 35.7333 8.93396V6.70065C35.7333 6.08393 35.5333 5.58398 35.2866 5.58398Z" fill="#BDA170"/>
<path d="M35.175 5.58398H33.5C33.8083 5.58398 34.0583 6.08393 34.0583 6.70065V8.93396C34.0583 9.5507 33.8083 10.0507 33.5 10.0507H35.175C35.4833 10.0507 35.7333 9.5507 35.7333 8.93396V6.70065C35.7333 6.08393 35.4833 5.58398 35.175 5.58398Z" fill="#8B7550"/>
<path d="M35.431 26.373H31.3916C31.1128 26.373 30.8867 26.8647 30.8867 27.4711V31.8634C30.8867 32.4698 31.1128 32.9614 31.3916 32.9614H35.431C35.7098 32.9614 35.9359 32.4698 35.9359 31.8634V27.4711C35.9359 26.8647 35.7098 26.373 35.431 26.373Z" fill="#F5F5F5"/>
<path d="M44.1846 29.5537H43.5092V29.0847C43.5092 29.0065 43.4686 28.9674 43.3873 28.9674H43.195C43.1106 28.9674 43.0684 29.0065 43.0684 29.0847V30.9138C43.0684 30.9575 43.0778 30.9888 43.0965 31.0076C43.1153 31.0232 43.1481 31.031 43.195 31.031H43.3873C43.4311 31.031 43.4623 31.0232 43.4811 31.0076C43.4999 30.9888 43.5092 30.9575 43.5092 30.9138V30.4589H44.1846V30.9748C44.1846 31.3187 43.9861 31.4907 43.589 31.4907H42.9886C42.5947 31.4907 42.3977 31.3187 42.3977 30.9748V29.0237C42.3977 28.6798 42.5947 28.5078 42.9886 28.5078H43.589C43.9861 28.5078 44.1846 28.6798 44.1846 29.0237V29.5537ZM45.1095 28.5078H45.7379C46.1319 28.5078 46.3289 28.6798 46.3289 29.0237V30.9701C46.3289 31.3171 46.1319 31.4907 45.7379 31.4907H45.1095C44.7124 31.4907 44.5138 31.3171 44.5138 30.9701V29.0237C44.5138 28.6798 44.7124 28.5078 45.1095 28.5078ZM45.6582 30.881V29.1175C45.6582 29.0393 45.6175 29.0003 45.5363 29.0003H45.3111C45.2267 29.0003 45.1845 29.0393 45.1845 29.1175V30.881C45.1845 30.9591 45.2267 30.9982 45.3111 30.9982H45.5363C45.6175 30.9982 45.6582 30.9591 45.6582 30.881ZM46.8556 30.4736V30.6424H46.5682V30.4334C46.5682 30.286 46.6526 30.2123 46.8215 30.2123H47.0385C47.2101 30.2123 47.2958 30.286 47.2958 30.4334V30.5962C47.2958 30.6578 47.2864 30.7114 47.2677 30.757C47.2503 30.8012 47.2214 30.8501 47.1812 30.9037L46.924 31.2796H47.2998V31.4907H46.5742V31.2957L46.928 30.8213C46.9615 30.7798 46.9836 30.7429 46.9943 30.7108C47.0064 30.6786 47.0124 30.6391 47.0124 30.5922V30.4736C47.0124 30.4401 46.9943 30.4233 46.9581 30.4233H46.9079C46.873 30.4233 46.8556 30.4401 46.8556 30.4736Z" fill="#002BC2"/>
<path d="M21.5578 28.5078H22.1862C22.5802 28.5078 22.7772 28.6798 22.7772 29.0237V30.9701C22.7772 31.3171 22.5802 31.4907 22.1862 31.4907H21.5578C21.1607 31.4907 20.9622 31.3171 20.9622 30.9701V29.0237C20.9622 28.6798 21.1607 28.5078 21.5578 28.5078ZM22.1065 30.881V29.1175C22.1065 29.0393 22.0658 29.0003 21.9846 29.0003H21.7595C21.675 29.0003 21.6328 29.0393 21.6328 29.1175V30.881C21.6328 30.9591 21.675 30.9982 21.7595 30.9982H21.9846C22.0658 30.9982 22.1065 30.9591 22.1065 30.881ZM23.304 30.4736V30.6424H23.0166V30.4334C23.0166 30.286 23.101 30.2123 23.2698 30.2123H23.4869C23.6584 30.2123 23.7442 30.286 23.7442 30.4334V30.5962C23.7442 30.6578 23.7348 30.7114 23.7161 30.757C23.6986 30.8012 23.6698 30.8501 23.6296 30.9037L23.3723 31.2796H23.7482V31.4907H23.0226V31.2957L23.3764 30.8213C23.4099 30.7798 23.432 30.7429 23.4427 30.7108C23.4548 30.6786 23.4608 30.6391 23.4608 30.5922V30.4736C23.4608 30.4401 23.4427 30.4233 23.4065 30.4233H23.3563C23.3214 30.4233 23.304 30.4401 23.304 30.4736Z" fill="#002BC2"/>
<path d="M33.3961 31.4907L33.2929 30.9513H32.6129L32.5097 31.4907H31.8484L32.5237 28.5078H33.3773L34.0714 31.4907H33.3961ZM32.7067 30.4635H33.1944L32.9505 29.2019L32.7067 30.4635ZM35.3865 29.155H35.4663V29.7225H35.2364C35.0395 29.7225 34.941 29.8319 34.941 30.0508V31.4907H34.2891V29.1691H34.9316V29.5021C34.9566 29.3989 35.0082 29.316 35.0864 29.2535C35.1646 29.1879 35.2646 29.155 35.3865 29.155Z" fill="#002BC2"/>
<defs>
<pattern id="pattern0" patternContentUnits="objectBoundingBox" width="1" height="1">
<use xlink:href="#image0_1174_2242" transform="translate(-0.3) scale(0.003125)"/>
</pattern>
</defs>
</svg>
