<svg width="18" height="18" viewBox="0 0 18 18" fill="none" xmlns="http://www.w3.org/2000/svg">
<line x1="0.5" y1="14.9004" x2="0.5" y2="17.5004" stroke="black" stroke-linecap="round"/>
<line x1="0.5" y1="7.69922" x2="0.5" y2="10.2992" stroke="#E5E5E5" stroke-linecap="round"/>
<line x1="0.5" y1="0.5" x2="0.5" y2="3.1" stroke="#238CBC" stroke-linecap="round"/>
<line x1="14.8999" y1="16.3008" x2="17.4999" y2="16.3008" stroke="black" stroke-linecap="round"/>
<line x1="14.8999" y1="9.09961" x2="17.4999" y2="9.09961" stroke="#E5E5E5" stroke-linecap="round"/>
<line x1="14.8999" y1="1.90039" x2="17.4999" y2="1.90039" stroke="#238CBC" stroke-linecap="round"/>
<path d="M16.7998 16.5C16.7998 17.3284 16.1282 18 15.2998 18H1.49981C0.671379 18 -0.00019455 17.3284 -0.00019455 16.5V15.9C-0.00019455 15.0716 0.671378 14.4 1.49981 14.4H15.2998C16.1282 14.4 16.7998 15.0716 16.7998 15.9V16.5Z" fill="black"/>
<path d="M16.7998 9.29883C16.7998 10.1273 16.1282 10.7988 15.2998 10.7988L1.49981 10.7988C0.671379 10.7988 -0.00019455 10.1273 -0.00019455 9.29883V8.69883C-0.00019455 7.8704 0.671378 7.19883 1.49981 7.19883L15.2998 7.19883C16.1282 7.19883 16.7998 7.8704 16.7998 8.69883V9.29883Z" fill="#E5E5E5"/>
<path d="M16.7998 2.09961C16.7998 2.92804 16.1282 3.59961 15.2998 3.59961L1.49981 3.59961C0.671379 3.59961 -0.00019455 2.92804 -0.00019455 2.09961V1.49961C-0.00019455 0.671183 0.671378 -0.00039053 1.49981 -0.00039053L15.2998 -0.00039053C16.1282 -0.00039053 16.7998 0.671183 16.7998 1.49961V2.09961Z" fill="#238CBC"/>
</svg>
