<svg width="13" height="20" viewBox="0 0 13 20" fill="none" xmlns="http://www.w3.org/2000/svg">
<path d="M8.78262 6.03853C8.78262 7.55448 7.55373 8.78311 6.03804 8.78311C4.52235 8.78311 3.29346 7.55448 3.29346 6.03853C3.29346 4.52284 4.52235 3.29395 6.03804 3.29395C7.55373 3.29395 8.78262 4.52284 8.78262 6.03853Z" fill="#121218" fill-opacity="0.8"/>
<path d="M11.5272 18.1145C11.5272 17.2051 9.06963 16.4678 6.03799 16.4678C3.00635 16.4678 0.548828 17.2051 0.548828 18.1145C0.548828 19.0242 3.00635 19.7613 6.03799 19.7613C9.06963 19.7613 11.5272 19.0242 11.5272 18.1145Z" fill="white"/>
<path d="M6.03807 0C2.70411 0.0021442 0.0021442 2.70438 0 6.03808C0 8.88156 4.30341 15.0129 5.36828 16.4841C5.49479 16.6543 5.57707 16.7639 5.59905 16.7969C5.70251 16.9352 5.8652 17.0164 6.03807 17.0164C6.21095 17.0164 6.37364 16.9352 6.4771 16.7969C6.49908 16.7639 6.58163 16.6543 6.70787 16.4841C7.77273 15.0129 12.0761 8.88156 12.0761 6.03808C12.074 2.70438 9.37204 0.0021442 6.03807 0ZM6.03807 15.5345C4.33638 13.1467 1.09783 8.17344 1.09783 6.03808C1.09783 3.30985 3.30958 1.09783 6.03807 1.09783C8.76657 1.09783 10.9783 3.30985 10.9783 6.03808C10.9783 8.17344 7.73977 13.1467 6.03807 15.5345Z" fill="white"/>
<path d="M6.03813 2.74414C4.21931 2.74414 2.74463 4.21882 2.74463 6.03764C2.74463 7.85673 4.21931 9.33114 6.03813 9.33114C7.85721 9.33114 9.33162 7.85673 9.33162 6.03764C9.33162 4.21882 7.85721 2.74414 6.03813 2.74414ZM6.03813 8.23331C4.82558 8.23331 3.84246 7.25046 3.84246 6.03764C3.84246 4.82509 4.82558 3.84197 6.03813 3.84197C7.25067 3.84197 8.23379 4.82509 8.23379 6.03764C8.23379 7.25046 7.25067 8.23331 6.03813 8.23331Z" fill="white"/>
</svg>
