<svg width="50" height="50" viewBox="0 0 50 50" fill="none" xmlns="http://www.w3.org/2000/svg">
<path d="M44.8472 1.9084H43.1327C43.177 1.76641 43.2228 1.62443 43.2228 1.46718C43.2228 0.658015 42.5633 0 41.7526 0C40.9419 0 40.2854 0.658015 40.2854 1.46718C40.2854 1.62443 40.3281 1.76641 40.3755 1.9084H34.7572C34.8014 1.76641 34.8472 1.62443 34.8472 1.46718C34.8442 0.658015 34.1877 0 33.3755 0C32.5663 0 31.9083 0.658015 31.9083 1.46718C31.9083 1.62443 31.9526 1.76641 31.9984 1.9084H26.377C26.4213 1.76641 26.4671 1.62443 26.4671 1.46718C26.4671 0.658015 25.8106 0 24.9999 0C24.1892 0 23.5327 0.658015 23.5327 1.46718C23.5327 1.62443 23.5755 1.76641 23.6213 1.9084H18.0014C18.0457 1.76641 18.0915 1.62443 18.0915 1.46718C18.0915 0.658015 17.4335 0 16.6243 0C15.8136 0 15.1556 0.658015 15.1556 1.46718C15.1556 1.62443 15.1984 1.76641 15.2442 1.9084H9.62586C9.67166 1.76641 9.71593 1.62443 9.71593 1.46718C9.71593 0.656489 9.05944 0 8.24876 0C7.43807 0 6.78006 0.658015 6.78006 1.46718C6.78006 1.62443 6.8228 1.76641 6.86861 1.9084H5.15258C2.83502 1.9084 0.954102 3.79084 0.954102 6.10687V45.8015C0.954102 48.1191 2.83502 50 5.15258 50H40.1068L49.0457 41.0611V6.10687C49.0457 3.79084 47.1648 1.9084 44.8472 1.9084ZM46.7556 40.1115L46.2808 40.5863H42.6854C41.003 40.5863 39.632 41.9603 39.632 43.6397V47.2351L39.1572 47.7099H5.15258C4.10067 47.7099 3.24418 46.8534 3.24418 45.8015V13.7405H46.7556V40.1115Z" fill="#121218" fill-opacity="0.9"/>
<path d="M7.24 37V23H11.34L14.68 28.42L18.02 23H22.12V37H18.26V28.96L14.68 34.44H14.6L11.04 29V37H7.24Z" fill="#121218" fill-opacity="0.9"/>
<path d="M32.24 37V23H43.44V26.4H36.12V28.78H42.74V32H36.12V37H32.24Z" fill="#121218" fill-opacity="0.9"/>
<path d="M23.8 32.42V29.08H30.36V32.42H23.8Z" fill="#121218" fill-opacity="0.9"/>
</svg>
