<svg width="12" height="12" viewBox="0 0 12 12" fill="none" xmlns="http://www.w3.org/2000/svg">
<path d="M11.946 9.56544L11.8863 9.38548C11.7448 8.96501 11.2811 8.52649 10.8552 8.41095L9.27864 7.98028C8.8511 7.86396 8.24124 8.02036 7.92844 8.33314L7.35785 8.90372C5.28424 8.3434 3.65821 6.71732 3.09864 4.64411L3.66925 4.0735C3.98205 3.7607 4.13843 3.15164 4.02211 2.72411L3.59222 1.14679C3.4759 0.720035 3.03658 0.256363 2.61691 0.116459L2.43695 0.0559501C2.01648 -0.0839538 1.41683 0.0575345 1.10405 0.370313L0.250543 1.2246C0.0980648 1.37627 0.000612429 1.81009 0.000612429 1.81168C-0.0292394 4.52148 1.03331 7.13225 2.95011 9.04908C4.86222 10.9612 7.4632 12.0222 10.1651 11.9994C10.1793 11.9994 10.6257 11.9035 10.7781 11.7518L11.6317 10.8983C11.9444 10.5855 12.0859 9.98591 11.946 9.56544Z" fill="white"/>
</svg>
